<?xml version="1.0" encoding="UTF-8"?>
<svg width="130px" height="36px" viewBox="0 0 130 36" version="1.1" xmlns="http://www.w3.org/2000/svg" xmlns:xlink="http://www.w3.org/1999/xlink">
    <!-- Generator: Sketch 49.2 (51160) - http://www.bohemiancoding.com/sketch -->
    <title>logo</title>
    <desc>Created with Sketch.</desc>
    <defs></defs>
    <g id="logo" stroke="none" stroke-width="1" fill="none" fill-rule="evenodd">
        <path d="M46.7416992,14 L43.1679688,14 L43.1679688,4.84033203 L46.671875,4.84033203 C48.3540039,4.84033203 49.3823242,5.72265625 49.3823242,7.12548828 C49.3823242,8.07763672 48.684082,8.94091797 47.8017578,9.09960938 L47.8017578,9.20117188 C49.0522461,9.35986328 49.8457031,10.2167969 49.8457031,11.4291992 C49.8457031,13.0415039 48.6904297,14 46.7416992,14 Z M44.3105469,5.84960938 L44.3105469,8.78857422 L46.1386719,8.78857422 C47.5224609,8.78857422 48.2270508,8.29345703 48.2270508,7.32226562 C48.2270508,6.38916016 47.5668945,5.84960938 46.4306641,5.84960938 L44.3105469,5.84960938 Z M44.3105469,12.9907227 L46.5703125,12.9907227 C47.9477539,12.9907227 48.6713867,12.4321289 48.6713867,11.3720703 C48.6713867,10.3120117 47.9223633,9.77246094 46.4624023,9.77246094 L44.3105469,9.77246094 L44.3105469,12.9907227 Z M57.7724609,12.9716797 L57.7724609,14 L52.2119141,14 L52.2119141,4.84033203 L53.3544922,4.84033203 L53.3544922,12.9716797 L57.7724609,12.9716797 Z M63.5664062,4.62451172 C66.1689453,4.62451172 67.7558594,6.47802734 67.7558594,9.41699219 C67.7558594,12.3432617 66.1816406,14.2158203 63.5664062,14.2158203 C60.9384766,14.2158203 59.3579102,12.3496094 59.3579102,9.41699219 C59.3579102,6.47167969 60.9765625,4.62451172 63.5664062,4.62451172 Z M63.5664062,5.67822266 C61.7001953,5.67822266 60.5322266,7.12548828 60.5322266,9.41699219 C60.5322266,11.6894531 61.6621094,13.1621094 63.5664062,13.1621094 C65.4453125,13.1621094 66.581543,11.6894531 66.581543,9.41699219 C66.581543,7.12548828 65.4389648,5.67822266 63.5664062,5.67822266 Z M73.9243164,14.2158203 C71.4360352,14.2158203 69.8808594,12.375 69.8808594,9.42333984 C69.8808594,6.46533203 71.4296875,4.62451172 73.9179688,4.62451172 C75.8476562,4.62451172 77.3520508,5.83691406 77.625,7.6015625 L76.4633789,7.6015625 C76.1586914,6.42089844 75.1811523,5.67822266 73.9179688,5.67822266 C72.159668,5.67822266 71.0551758,7.12548828 71.0551758,9.42333984 C71.0551758,11.7211914 72.159668,13.1621094 73.9243164,13.1621094 C75.2001953,13.1621094 76.1713867,12.5083008 76.4633789,11.4482422 L77.625,11.4482422 C77.3203125,13.1303711 75.8730469,14.2158203 73.9243164,14.2158203 Z M81.1845703,14 L80.0419922,14 L80.0419922,4.84033203 L81.1845703,4.84033203 L81.1845703,9.29003906 L81.2861328,9.29003906 L85.2978516,4.84033203 L86.7324219,4.84033203 L83.0698242,8.79492188 L87.0688477,14 L85.5898438,14 L82.2827148,9.58837891 L81.1845703,10.8007812 L81.1845703,14 Z M92.2851562,14.2158203 C89.796875,14.2158203 88.2416992,12.375 88.2416992,9.42333984 C88.2416992,6.46533203 89.7905273,4.62451172 92.2788086,4.62451172 C94.2084961,4.62451172 95.7128906,5.83691406 95.9858398,7.6015625 L94.8242188,7.6015625 C94.5195312,6.42089844 93.5419922,5.67822266 92.2788086,5.67822266 C90.5205078,5.67822266 89.4160156,7.12548828 89.4160156,9.42333984 C89.4160156,11.7211914 90.5205078,13.1621094 92.2851562,13.1621094 C93.5610352,13.1621094 94.5322266,12.5083008 94.8242188,11.4482422 L95.9858398,11.4482422 C95.6811523,13.1303711 94.2338867,14.2158203 92.2851562,14.2158203 Z M105.715332,14 L104.572754,14 L104.572754,9.82958984 L99.5454102,9.82958984 L99.5454102,14 L98.402832,14 L98.402832,4.84033203 L99.5454102,4.84033203 L99.5454102,8.80126953 L104.572754,8.80126953 L104.572754,4.84033203 L105.715332,4.84033203 L105.715332,14 Z M114.505371,14 L113.584961,11.378418 L109.941406,11.378418 L109.020996,14 L107.821289,14 L111.198242,4.84033203 L112.328125,4.84033203 L115.705078,14 L114.505371,14 Z M111.712402,6.31933594 L110.277832,10.4072266 L113.248535,10.4072266 L111.813965,6.31933594 L111.712402,6.31933594 Z M118.953613,14 L117.811035,14 L117.811035,4.84033203 L118.953613,4.84033203 L118.953613,14 Z M122.919434,14 L121.789551,14 L121.789551,4.84033203 L122.900391,4.84033203 L127.870605,11.96875 L127.972168,11.96875 L127.972168,4.84033203 L129.102051,4.84033203 L129.102051,14 L127.991211,14 L123.020996,6.89697266 L122.919434,6.89697266 L122.919434,14 Z" id="BLOCKCHAIN" fill="#FFFFFF"></path>
        <path d="M51.3818359,32 L49.0585938,32 L49.0585938,28.3056641 L45.4086914,28.3056641 L45.4086914,32 L43.0791016,32 L43.0791016,22.840332 L45.4086914,22.840332 L45.4086914,26.4331055 L49.0585938,26.4331055 L49.0585938,22.840332 L51.3818359,22.840332 L51.3818359,32 Z M59.3862305,32 L58.8149414,29.987793 L55.8251953,29.987793 L55.2348633,32 L52.9243164,32 L55.996582,22.840332 L58.8466797,22.840332 L61.925293,32 L59.3862305,32 Z M57.2724609,24.9033203 L56.2695312,28.3120117 L58.3769531,28.3120117 L57.3930664,24.9033203 L57.2724609,24.9033203 Z M67.0668945,32.2475586 C64.324707,32.2475586 62.6362305,30.4067383 62.6362305,27.4169922 C62.6362305,24.4272461 64.3183594,22.5927734 67.0668945,22.5927734 C69.3710938,22.5927734 71.1166992,24.1289062 71.1865234,26.2045898 L68.9458008,26.2045898 C68.8251953,25.2080078 68.0698242,24.5351562 67.0668945,24.5351562 C65.7910156,24.5351562 65.0102539,25.6269531 65.0102539,27.4106445 C65.0102539,29.2006836 65.7910156,30.3051758 67.0732422,30.3051758 C68.0761719,30.3051758 68.8251953,29.6577148 68.9584961,28.6738281 L71.1928711,28.6738281 C71.1166992,30.7685547 69.4155273,32.2475586 67.0668945,32.2475586 Z M75.2045898,32 L72.875,32 L72.875,22.840332 L75.2045898,22.840332 L75.2045898,26.7758789 L75.3251953,26.7758789 L78.3720703,22.840332 L80.8730469,22.840332 L77.7055664,26.8837891 L81.0571289,32 L78.3212891,32 L76.0107422,28.3881836 L75.2045898,29.4101562 L75.2045898,32 Z M88.2871094,32 L87.7158203,29.987793 L84.7260742,29.987793 L84.1357422,32 L81.8251953,32 L84.8974609,22.840332 L87.7475586,22.840332 L90.8261719,32 L88.2871094,32 Z M86.1733398,24.9033203 L85.1704102,28.3120117 L87.277832,28.3120117 L86.2939453,24.9033203 L86.1733398,24.9033203 Z M95.8916016,32 L93.5683594,32 L93.5683594,24.7128906 L90.9277344,24.7128906 L90.9277344,22.840332 L98.5385742,22.840332 L98.5385742,24.7128906 L95.8916016,24.7128906 L95.8916016,32 Z M108.498047,32 L106.174805,32 L106.174805,28.3056641 L102.524902,28.3056641 L102.524902,32 L100.195312,32 L100.195312,22.840332 L102.524902,22.840332 L102.524902,26.4331055 L106.174805,26.4331055 L106.174805,22.840332 L108.498047,22.840332 L108.498047,32 Z M114.744141,22.5927734 C117.499023,22.5927734 119.250977,24.4399414 119.250977,27.4169922 C119.250977,30.4003906 117.499023,32.2475586 114.744141,32.2475586 C111.976563,32.2475586 110.224609,30.4003906 110.224609,27.4169922 C110.224609,24.4399414 111.995605,22.5927734 114.744141,22.5927734 Z M114.744141,24.5224609 C113.455566,24.5224609 112.598633,25.6523438 112.598633,27.4169922 C112.598633,29.1879883 113.442871,30.3178711 114.744141,30.3178711 C116.032715,30.3178711 116.883301,29.1879883 116.883301,27.4169922 C116.883301,25.6523438 116.026367,24.5224609 114.744141,24.5224609 Z M123.186523,32 L120.977539,32 L120.977539,22.840332 L122.837402,22.840332 L126.652344,27.9946289 L126.772949,27.9946289 L126.772949,22.840332 L128.981934,22.840332 L128.981934,32 L127.134766,32 L123.307129,26.7949219 L123.186523,26.7949219 L123.186523,32 Z" id="HACKATHON" fill="#FFFFFF"></path>
        <g id="Group-3" fill="#1CD1A1">
            <path d="M33.7142857,0 L2.28571429,0 C1.02342857,0 0,1.02342857 0,2.28571429 L0,33.7142857 C0,34.9767143 1.02342857,36 2.28571429,36 L33.7142857,36 C34.9765714,36 36,34.9767143 36,33.7142857 L36,2.28571429 C36,1.02342857 34.9765714,0 33.7142857,0 Z M34,33.1428571 C34,33.6161429 33.6161429,34 33.1428571,34 L2.85714286,34 C2.38385714,34 2,33.6161429 2,33.1428571 L2,2.85714286 C2,2.38385714 2.38385714,2 2.85714286,2 L33.1428571,2 C33.6161429,2 34,2.38385714 34,2.85714286 L34,33.1428571 Z" id="Shape"></path>
            <g id="Group" transform="translate(6.571429, 6.571429)">
                <polygon id="Shape" points="0 0 0 9.14285714 2 9.14285714 2 5.57142857 7.14285714 5.57142857 7.14285714 9.14285714 9.14285714 9.14285714 9.14285714 0 7.14285714 0 7.14285714 3.57142857 2 3.57142857 2 0"></polygon>
                <path d="M15.7142857,2 L20.8571429,2 L20.8571429,4.57142857 L15.7142857,4.57142857 L15.7142857,2 Z M13.7142857,0 L13.7142857,9.14285714 L15.7142857,9.14285714 L15.7142857,6.57142857 L20.8571429,6.57142857 L20.8571429,9.14285714 L22.8571429,9.14285714 L22.8571429,0 L13.7142857,0 Z" id="Shape"></path>
                <polygon id="Shape" points="13.7142857 13.7142857 13.7142857 22.8571429 15.7142857 22.8571429 15.7142857 19.2857143 20.8571429 19.2857143 20.8571429 22.8571429 22.8571429 22.8571429 22.8571429 17.2857143 20.8571429 17.2857143 20.8571429 13.7142857 18.8571429 13.7142857 18.8571429 17.2857143 15.7142857 17.2857143 15.7142857 13.7142857"></polygon>
                <polygon id="Shape" points="9.14285714 15.7142857 9.14285714 13.7142857 2 13.7142857 0 13.7142857 0 15.7142857 0 20.8571429 0 22.8571429 2 22.8571429 9.14285714 22.8571429 9.14285714 20.8571429 2 20.8571429 2 15.7142857"></polygon>
            </g>
        </g>
    </g>
</svg>